HIERARCHY
ROOT root
{
	OFFSET 0.000000 0.000000 0.000000
	CHANNELS 6 Xposition Yposition Zposition Zrotation Yrotation Xrotation
	JOINT lhip
	{
		OFFSET 0.058581 -0.082280 -0.017664
		CHANNELS 3 Zrotation Yrotation Xrotation
		JOINT lknee
		{
			OFFSET 0.043451 -0.386469 0.008037
			CHANNELS 3 Zrotation Yrotation Xrotation
			JOINT lankle
			{
				OFFSET -0.014790 -0.426874 -0.037428
				CHANNELS 3 Zrotation Yrotation Xrotation
				JOINT ltoe
				{
					OFFSET 0.041054 -0.060286 0.122042
					CHANNELS 3 Zrotation Yrotation Xrotation
					End Site
					{
						OFFSET 0.000000 0.000000 0.000000
					}
				}
			}
		}
	}
	JOINT rhip
	{
		OFFSET -0.060310 -0.090513 -0.013543
		CHANNELS 3 Zrotation Yrotation Xrotation
		JOINT rknee
		{
			OFFSET -0.043257 -0.383688 -0.004843
			CHANNELS 3 Zrotation Yrotation Xrotation
			JOINT rankle
			{
				OFFSET 0.019056 -0.420046 -0.034562
				CHANNELS 3 Zrotation Yrotation Xrotation
				JOINT rtoe
				{
					OFFSET -0.034840 -0.062106 0.130323
					CHANNELS 3 Zrotation Yrotation Xrotation
					End Site
					{
						OFFSET 0.000000 0.000000 0.000000
					}
				}
			}
		}
	}
	JOINT lowerback
	{
		OFFSET 0.004439 0.124404 -0.038385
		CHANNELS 3 Zrotation Yrotation Xrotation
		JOINT upperback
		{
			OFFSET 0.004488 0.137956 0.026820
			CHANNELS 3 Zrotation Yrotation Xrotation
			JOINT chest
			{
				OFFSET -0.002265 0.056032 0.002855
				CHANNELS 3 Zrotation Yrotation Xrotation
				JOINT lowerneck
				{
					OFFSET -0.013390 0.211636 -0.033468
					CHANNELS 3 Zrotation Yrotation Xrotation
					JOINT upperneck
					{
						OFFSET 0.010113 0.088937 0.050410
						CHANNELS 3 Zrotation Yrotation Xrotation
						End Site
						{
							OFFSET 0.000000 0.000000 0.000000
						}
					}
				}
				JOINT lclavicle
				{
					OFFSET 0.071702 0.114000 -0.018898
					CHANNELS 3 Zrotation Yrotation Xrotation
					JOINT lshoulder
					{
						OFFSET 0.122921 0.045205 -0.019046
						CHANNELS 3 Zrotation Yrotation Xrotation
						JOINT lelbow
						{
							OFFSET 0.255332 -0.015649 -0.022946
							CHANNELS 3 Zrotation Yrotation Xrotation
							JOINT lwrist
							{
								OFFSET 0.265709 0.012698 -0.007375
								CHANNELS 3 Zrotation Yrotation Xrotation
								End Site
								{
									OFFSET 0.000000 0.000000 0.000000
								}
							}
						}
					}
				}
				JOINT rclavicle
				{
					OFFSET -0.082954 0.112472 -0.023707
					CHANNELS 3 Zrotation Yrotation Xrotation
					JOINT rshoulder
					{
						OFFSET -0.113228 0.046853 -0.008472
						CHANNELS 3 Zrotation Yrotation Xrotation
						JOINT relbow
						{
							OFFSET -0.260127 -0.014369 -0.031269
							CHANNELS 3 Zrotation Yrotation Xrotation
							JOINT rwrist
							{
								OFFSET -0.269108 0.006794 -0.006027
								CHANNELS 3 Zrotation Yrotation Xrotation
								End Site
								{
									OFFSET 0.000000 0.000000 0.000000
								}
							}
						}
					}
				}
			}
		}
	}
}
MOTION
Frames: 10
Frame Time: 0.033333
0.432227 0.206446 0.976803 88.068293 1.065924 86.728036 5.785112 1.214577 3.575546 0.161285 -6.179721 4.142918 0.858443 8.778245 -12.557095 0.000000 -0.000000 0.000000 -6.653162 -2.851577 6.502358 1.086862 -3.464925 -3.371768 2.356056 -6.099617 -7.190190 0.000000 -0.000000 0.000000 0.886110 1.061974 1.460864 1.986762 -4.938575 5.937270 1.323282 -2.740925 -4.259072 -5.321071 6.162329 12.494501 2.454269 1.233867 -14.473143 -20.935951 -1.518928 2.942136 -60.625702 -4.039611 9.431042 14.360273 -11.013444 -7.303116 -16.549152 -15.969576 1.278877 18.647910 5.011630 1.347117 56.382177 0.240543 8.099066 -13.335479 11.151868 -6.171268 16.262492 13.022993 -3.428046 
0.431636 0.206255 0.976702 87.795569 1.103535 86.703444 5.809925 1.240672 3.615861 0.218251 -5.984507 4.146052 0.832158 8.807872 -12.567179 0.000000 -0.000000 0.000000 -6.621894 -2.823283 6.403258 1.087476 -3.444599 -3.330943 2.514094 -5.869776 -7.197208 0.000000 -0.000000 0.000000 1.034566 1.148731 1.530131 1.847244 -4.812443 5.508669 1.287579 -2.633141 -4.003578 -5.060406 6.028045 12.913116 2.646787 1.326561 -14.101695 -21.109447 -1.789166 3.123183 -60.376287 -3.971535 9.462221 14.322913 -11.951875 -7.129455 -15.630362 -16.126997 0.583674 18.654724 5.538456 1.124919 55.891711 1.292852 7.998287 -13.532786 12.934221 -7.332621 15.117696 13.879261 -4.737496 
0.431047 0.206000 0.976493 87.631626 1.132132 86.684774 5.861926 1.264197 3.592366 0.230457 -5.789142 4.199593 0.850725 8.730949 -12.541807 0.000000 -0.000000 0.000000 -6.597741 -2.783105 6.311936 1.114336 -3.475433 -3.276632 2.534680 -5.703511 -7.166246 0.000000 -0.000000 0.000000 1.110048 1.191418 1.504340 1.784299 -4.782114 5.459821 1.212988 -2.542901 -4.027961 -4.743657 5.966361 13.209770 2.793518 1.307946 -13.652984 -21.164802 -1.937246 3.183244 -60.278495 -3.965421 9.463173 14.539678 -13.105890 -7.166846 -15.058851 -16.193729 0.116714 18.566242 6.009907 0.912024 55.584277 2.385142 8.020951 -13.981022 15.316395 -8.287282 14.388233 14.349158 -5.874752 
0.430266 0.205533 0.976273 87.609974 1.137821 86.651594 5.915335 1.216963 3.538370 0.223745 -5.621292 4.293461 0.897809 8.575989 -12.551940 0.000000 -0.000000 0.000000 -6.586499 -2.723883 6.262516 1.151013 -3.641127 -3.221932 2.548831 -5.540604 -7.145498 0.000000 -0.000000 0.000000 1.108339 1.228488 1.509931 1.707156 -4.781646 5.340492 1.143958 -2.471363 -3.980343 -4.391596 5.887223 13.521534 2.981487 1.180010 -13.229914 -21.064478 -2.196271 3.160042 -60.312256 -4.138876 9.445768 14.896075 -14.520588 -7.225656 -14.518206 -16.351805 -0.304052 18.329980 6.578763 0.623724 55.621164 3.544759 8.180216 -14.735581 18.314169 -8.927475 13.679333 15.011652 -6.740185 
0.429832 0.205268 0.976243 87.660656 1.148177 86.621597 5.959779 1.182949 3.507976 0.212442 -5.544405 4.337861 0.925302 8.468397 -12.541034 0.000000 -0.000000 0.000000 -6.571525 -2.708430 6.267948 1.180144 -3.741498 -3.198282 2.521453 -5.471738 -7.158979 0.000000 -0.000000 0.000000 1.115610 1.275754 1.500887 1.668041 -4.782242 5.374549 1.091589 -2.430333 -4.033081 -4.220769 5.793244 13.669488 3.076879 1.022010 -12.990487 -21.096160 -2.435811 3.134722 -60.199500 -4.316064 9.438184 15.039486 -15.326142 -7.290204 -14.238374 -16.418787 -0.372095 18.253601 6.924562 0.511446 55.641955 4.101207 8.293082 -15.096248 19.974187 -9.153374 13.206386 15.376323 -6.896061 
0.429332 0.204864 0.976208 87.780296 1.158413 86.603953 6.023509 1.123532 3.452919 0.191991 -5.448214 4.372705 0.958664 8.298297 -12.535234 0.000000 -0.000000 0.000000 -6.549992 -2.678933 6.297759 1.223845 -3.911075 -3.219834 2.500625 -5.407426 -7.144161 0.000000 -0.000000 0.000000 1.069968 1.355655 1.472130 1.640296 -4.762907 5.426828 1.065375 -2.413205 -4.100819 -4.046230 5.665045 13.809374 3.200649 0.725463 -12.692275 -21.128931 -2.767411 3.127624 -60.110029 -4.597972 9.386398 15.286722 -16.427901 -7.386784 -13.971658 -16.545277 -0.433707 18.234187 7.361418 0.448560 55.636607 4.695019 8.457362 -15.557292 22.096305 -9.317070 12.709010 15.836116 -7.009637 
0.428978 0.204427 0.976166 87.949244 1.159486 86.613954 6.065763 1.048010 3.371360 0.188874 -5.390396 4.400303 0.991221 8.138260 -12.523605 0.000000 -0.000000 0.000000 -6.522009 -2.669201 6.341614 1.252013 -4.090681 -3.286543 2.466127 -5.361466 -7.128753 0.000000 -0.000000 0.000000 0.979380 1.435141 1.424694 1.621654 -4.740438 5.466722 1.058674 -2.402142 -4.175836 -3.908388 5.484419 13.932100 3.325263 0.421812 -12.431390 -21.130563 -3.059844 3.137219 -60.111049 -4.890640 9.364095 15.577872 -17.528825 -7.556906 -13.727731 -16.648929 -0.527300 18.215285 7.740555 0.420966 55.759477 5.142977 8.630285 -15.955186 23.766083 -9.376044 12.453698 16.189130 -7.112275 
0.428740 0.203929 0.976162 88.116234 1.176759 86.639530 6.123974 0.978927 3.292482 0.197455 -5.361059 4.399621 1.007924 8.002897 -12.509960 0.000000 -0.000000 0.000000 -6.468302 -2.706362 6.375618 1.268848 -4.227321 -3.356442 2.425338 -5.323524 -7.114401 0.000000 -0.000000 0.000000 0.902423 1.521741 1.354030 1.602685 -4.701614 5.527327 1.045504 -2.381098 -4.239890 -3.779205 5.309637 14.018924 3.434202 0.143077 -12.232228 -21.142313 -3.291582 3.119517 -60.120075 -5.171150 9.403101 15.827626 -18.566416 -7.655921 -13.537162 -16.720094 -0.517381 18.234495 8.033369 0.427594 55.973265 5.477818 8.788316 -16.231461 24.923377 -9.370153 12.385393 16.414756 -7.199109 
0.428513 0.203399 0.976123 88.272472 1.181969 86.662970 6.167399 0.909771 3.207612 0.196323 -5.351656 4.428949 1.030232 7.890883 -12.537615 0.000000 -0.000000 0.000000 -6.428817 -2.730571 6.398640 1.287351 -4.355350 -3.409217 2.394778 -5.302690 -7.099656 0.000000 -0.000000 0.000000 0.789147 1.590879 1.360684 1.590705 -4.640880 5.518818 1.057003 -2.365364 -4.272524 -3.666020 5.155656 14.017145 3.528420 -0.108966 -12.073024 -21.131395 -3.417701 3.077689 -60.201100 -5.433768 9.471382 16.086187 -19.473041 -7.670690 -13.371924 -16.810183 -0.487953 18.343452 8.245377 0.470561 56.193622 5.746122 8.936698 -16.311553 25.517278 -9.215174 12.438478 16.512647 -7.220807 
0.428297 0.202866 0.976094 88.455991 1.201538 86.686390 6.229024 0.838114 3.124986 0.202238 -5.349272 4.442065 1.021264 7.777530 -12.535513 0.000000 -0.000000 0.000000 -6.376152 -2.774030 6.421843 1.306370 -4.485284 -3.443247 2.354924 -5.280031 -7.112260 0.000000 -0.000000 0.000000 0.713032 1.640204 1.424509 1.554959 -4.563738 5.489597 1.063827 -2.339054 -4.288479 -3.563295 4.991100 13.984173 3.624132 -0.351776 -11.994658 -21.135077 -3.527616 3.084223 -60.350468 -5.730542 9.539451 16.322785 -20.258843 -7.654504 -13.067046 -16.910474 -0.466192 18.454924 8.432084 0.584376 56.598647 5.916117 9.105804 -16.193881 25.472258 -8.812267 12.484544 16.448940 -7.114591 
